<?xml version="1.0" encoding="UTF-8" standalone="no"?>
<svg
   xmlns:dc="http://purl.org/dc/elements/1.1/"
   xmlns:cc="http://creativecommons.org/ns#"
   xmlns:rdf="http://www.w3.org/1999/02/22-rdf-syntax-ns#"
   xmlns:svg="http://www.w3.org/2000/svg"
   xmlns="http://www.w3.org/2000/svg"
   xmlns:sodipodi="http://sodipodi.sourceforge.net/DTD/sodipodi-0.dtd"
   xmlns:inkscape="http://www.inkscape.org/namespaces/inkscape"
   width="128"
   height="128"
   viewBox="0 0 33.866666 33.866668"
   version="1.1"
   id="svg8"
   sodipodi:docname="settings_multiplayer.svg"
   inkscape:export-filename="C:\Users\cyber\Code\i-mic-fps\static\icons\settings_multiplayer.png"
   inkscape:export-xdpi="96"
   inkscape:export-ydpi="96"
   inkscape:version="1.0.2 (e86c870879, 2021-01-15, custom)">
  <defs
     id="defs2" />
  <sodipodi:namedview
     id="base"
     pagecolor="#ffffff"
     bordercolor="#666666"
     borderopacity="1.0"
     inkscape:pageopacity="0.0"
     inkscape:pageshadow="2"
     inkscape:zoom="4"
     inkscape:cx="12.644256"
     inkscape:cy="56.822495"
     inkscape:document-units="px"
     inkscape:current-layer="layer1"
     inkscape:document-rotation="0"
     showgrid="false"
     units="px"
     showguides="true"
     inkscape:guide-bbox="true"
     inkscape:window-width="1920"
     inkscape:window-height="1017"
     inkscape:window-x="-8"
     inkscape:window-y="-8"
     inkscape:window-maximized="1"
     inkscape:snap-intersection-paths="true"
     inkscape:snap-bbox="true"
     inkscape:bbox-paths="true"
     inkscape:snap-bbox-edge-midpoints="true"
     inkscape:snap-smooth-nodes="true"
     inkscape:object-paths="true">
    <inkscape:grid
       type="xygrid"
       id="grid833"
       empspacing="8" />
    <sodipodi:guide
       position="2.1166666,16.933334"
       orientation="1,0"
       id="guide837" />
    <sodipodi:guide
       position="16.933333,31.750001"
       orientation="0,-1"
       id="guide839" />
    <sodipodi:guide
       position="31.749999,16.933334"
       orientation="1,0"
       id="guide841" />
    <sodipodi:guide
       position="19.05,2.1166667"
       orientation="0,-1"
       id="guide843" />
    <sodipodi:guide
       position="16.933333,27.516668"
       orientation="1,0"
       id="guide855" />
    <sodipodi:guide
       position="16.933333,16.933334"
       orientation="0,-1"
       id="guide857" />
  </sodipodi:namedview>
  <metadata
     id="metadata5">
    <rdf:RDF>
      <cc:Work
         rdf:about="">
        <dc:format>image/svg+xml</dc:format>
        <dc:type
           rdf:resource="http://purl.org/dc/dcmitype/StillImage" />
        <dc:title></dc:title>
      </cc:Work>
    </rdf:RDF>
  </metadata>
  <g
     inkscape:label="Layer 1"
     inkscape:groupmode="layer"
     id="layer1">
    <circle
       style="fill:#ffffff;stroke:#000000;stroke-width:0.529167;stroke-linecap:round;stroke-linejoin:round;stroke-miterlimit:4;stroke-dasharray:none"
       id="path908"
       cx="16.933334"
       cy="16.933334"
       r="14.816666" />
    <path
       id="path910"
       style="fill:#deddda;stroke:#000000;stroke-width:1.99999997;stroke-linecap:butt;stroke-linejoin:miter;stroke-opacity:1;stroke-miterlimit:4;stroke-dasharray:none"
       d="M 64 8 L 69.25 18 L 79.75 20.5 L 82.75 30.75 L 94 37.5 L 99.5 47.25 L 107.75 53.75 L 119.71875 58.390625 A 55.999998 55.999998 0 0 0 119.71484 58.345703 A 55.999998 55.999998 0 0 0 119.64648 57.720703 A 55.999998 55.999998 0 0 0 119.57227 57.095703 A 55.999998 55.999998 0 0 0 119.49219 56.470703 A 55.999998 55.999998 0 0 0 119.4043 55.847656 A 55.999998 55.999998 0 0 0 119.30859 55.226562 A 55.999998 55.999998 0 0 0 119.20703 54.605469 A 55.999998 55.999998 0 0 0 119.09766 53.986328 A 55.999998 55.999998 0 0 0 118.98047 53.367188 A 55.999998 55.999998 0 0 0 118.85742 52.75 A 55.999998 55.999998 0 0 0 118.72852 52.134766 A 55.999998 55.999998 0 0 0 118.5918 51.519531 A 55.999998 55.999998 0 0 0 118.44727 50.908203 A 55.999998 55.999998 0 0 0 118.29688 50.296875 A 55.999998 55.999998 0 0 0 118.14062 49.6875 A 55.999998 55.999998 0 0 0 117.97656 49.080078 A 55.999998 55.999998 0 0 0 117.80469 48.474609 A 55.999998 55.999998 0 0 0 117.62695 47.871094 A 55.999998 55.999998 0 0 0 117.44141 47.269531 A 55.999998 55.999998 0 0 0 117.25 46.669922 A 55.999998 55.999998 0 0 0 117.05273 46.072266 A 55.999998 55.999998 0 0 0 116.84766 45.476562 A 55.999998 55.999998 0 0 0 116.63672 44.884766 A 55.999998 55.999998 0 0 0 116.41797 44.294922 A 55.999998 55.999998 0 0 0 116.19336 43.707031 A 55.999998 55.999998 0 0 0 115.96289 43.121094 A 55.999998 55.999998 0 0 0 115.72461 42.539062 A 55.999998 55.999998 0 0 0 115.48047 41.958984 A 55.999998 55.999998 0 0 0 115.22852 41.382812 A 55.999998 55.999998 0 0 0 114.97266 40.808594 A 55.999998 55.999998 0 0 0 114.70703 40.236328 A 55.999998 55.999998 0 0 0 114.4375 39.667969 A 55.999998 55.999998 0 0 0 114.16211 39.103516 A 55.999998 55.999998 0 0 0 113.87891 38.541016 A 55.999998 55.999998 0 0 0 113.58984 37.982422 A 55.999998 55.999998 0 0 0 113.29297 37.425781 A 55.999998 55.999998 0 0 0 112.99219 36.875 A 55.999998 55.999998 0 0 0 112.68359 36.326172 A 55.999998 55.999998 0 0 0 112.36914 35.779297 A 55.999998 55.999998 0 0 0 112.04883 35.238281 A 55.999998 55.999998 0 0 0 111.72266 34.701172 A 55.999998 55.999998 0 0 0 111.39062 34.166016 A 55.999998 55.999998 0 0 0 111.05273 33.634766 A 55.999998 55.999998 0 0 0 110.70898 33.109375 A 55.999998 55.999998 0 0 0 110.35938 32.585938 A 55.999998 55.999998 0 0 0 110.00195 32.066406 A 55.999998 55.999998 0 0 0 109.64062 31.552734 A 55.999998 55.999998 0 0 0 109.27344 31.041016 A 55.999998 55.999998 0 0 0 108.90039 30.535156 A 55.999998 55.999998 0 0 0 108.52148 30.03125 A 55.999998 55.999998 0 0 0 108.13672 29.533203 A 55.999998 55.999998 0 0 0 107.74609 29.039062 A 55.999998 55.999998 0 0 0 107.35156 28.550781 A 55.999998 55.999998 0 0 0 106.95117 28.066406 A 55.999998 55.999998 0 0 0 106.54297 27.585938 A 55.999998 55.999998 0 0 0 106.13281 27.109375 A 55.999998 55.999998 0 0 0 105.71484 26.638672 A 55.999998 55.999998 0 0 0 105.29297 26.171875 A 55.999998 55.999998 0 0 0 104.86523 25.710938 A 55.999998 55.999998 0 0 0 104.43164 25.253906 A 55.999998 55.999998 0 0 0 103.99414 24.802734 A 55.999998 55.999998 0 0 0 103.55078 24.355469 A 55.999998 55.999998 0 0 0 103.10352 23.912109 A 55.999998 55.999998 0 0 0 102.65039 23.476562 A 55.999998 55.999998 0 0 0 102.19141 23.044922 A 55.999998 55.999998 0 0 0 101.73047 22.617188 A 55.999998 55.999998 0 0 0 101.26172 22.197266 A 55.999998 55.999998 0 0 0 100.79102 21.78125 A 55.999998 55.999998 0 0 0 100.3125 21.369141 A 55.999998 55.999998 0 0 0 99.832031 20.964844 A 55.999998 55.999998 0 0 0 99.345703 20.564453 A 55.999998 55.999998 0 0 0 98.855469 20.169922 A 55.999998 55.999998 0 0 0 98.361328 19.78125 A 55.999998 55.999998 0 0 0 97.861328 19.398438 A 55.999998 55.999998 0 0 0 97.359375 19.019531 A 55.999998 55.999998 0 0 0 96.851562 18.648438 A 55.999998 55.999998 0 0 0 96.339844 18.28125 A 55.999998 55.999998 0 0 0 95.824219 17.921875 A 55.999998 55.999998 0 0 0 95.304688 17.566406 A 55.999998 55.999998 0 0 0 94.78125 17.21875 A 55.999998 55.999998 0 0 0 94.251953 16.875 A 55.999998 55.999998 0 0 0 93.720703 16.537109 A 55.999998 55.999998 0 0 0 93.185547 16.207031 A 55.999998 55.999998 0 0 0 92.646484 15.882812 A 55.999998 55.999998 0 0 0 92.105469 15.5625 A 55.999998 55.999998 0 0 0 91.558594 15.25 A 55.999998 55.999998 0 0 0 91.009766 14.943359 A 55.999998 55.999998 0 0 0 90.457031 14.642578 A 55.999998 55.999998 0 0 0 89.900391 14.349609 A 55.999998 55.999998 0 0 0 89.339844 14.060547 A 55.999998 55.999998 0 0 0 88.777344 13.779297 A 55.999998 55.999998 0 0 0 88.210938 13.503906 A 55.999998 55.999998 0 0 0 87.642578 13.236328 A 55.999998 55.999998 0 0 0 87.070312 12.972656 A 55.999998 55.999998 0 0 0 86.496094 12.716797 A 55.999998 55.999998 0 0 0 85.917969 12.466797 A 55.999998 55.999998 0 0 0 85.337891 12.224609 A 55.999998 55.999998 0 0 0 84.753906 11.988281 A 55.999998 55.999998 0 0 0 84.169922 11.757812 A 55.999998 55.999998 0 0 0 83.580078 11.535156 A 55.999998 55.999998 0 0 0 82.990234 11.318359 A 55.999998 55.999998 0 0 0 82.396484 11.107422 A 55.999998 55.999998 0 0 0 81.800781 10.904297 A 55.999998 55.999998 0 0 0 81.203125 10.708984 A 55.999998 55.999998 0 0 0 80.603516 10.517578 A 55.999998 55.999998 0 0 0 80.001953 10.333984 A 55.999998 55.999998 0 0 0 79.398438 10.158203 A 55.999998 55.999998 0 0 0 78.791016 9.9882812 A 55.999998 55.999998 0 0 0 78.183594 9.8261719 A 55.999998 55.999998 0 0 0 77.574219 9.6699219 A 55.999998 55.999998 0 0 0 76.962891 9.5214844 A 55.999998 55.999998 0 0 0 76.349609 9.3789062 A 55.999998 55.999998 0 0 0 75.736328 9.2441406 A 55.999998 55.999998 0 0 0 75.119141 9.1152344 A 55.999998 55.999998 0 0 0 74.501953 8.9941406 A 55.999998 55.999998 0 0 0 73.882812 8.8789062 A 55.999998 55.999998 0 0 0 73.263672 8.7714844 A 55.999998 55.999998 0 0 0 72.642578 8.6699219 A 55.999998 55.999998 0 0 0 72.019531 8.578125 A 55.999998 55.999998 0 0 0 71.396484 8.4902344 A 55.999998 55.999998 0 0 0 70.771484 8.4101562 A 55.999998 55.999998 0 0 0 70.146484 8.3378906 A 55.999998 55.999998 0 0 0 69.521484 8.2734375 A 55.999998 55.999998 0 0 0 68.894531 8.2148438 A 55.999998 55.999998 0 0 0 68.267578 8.1621094 A 55.999998 55.999998 0 0 0 67.640625 8.1191406 A 55.999998 55.999998 0 0 0 67.011719 8.0800781 A 55.999998 55.999998 0 0 0 66.382812 8.0507812 A 55.999998 55.999998 0 0 0 65.753906 8.0273438 A 55.999998 55.999998 0 0 0 65.125 8.0117188 A 55.999998 55.999998 0 0 0 64.496094 8.0019531 A 55.999998 55.999998 0 0 0 64 8 z "
       transform="scale(0.26458334)" />
    <path
       style="fill:#deddda;stroke:#000000;stroke-width:0.52916667;stroke-linecap:butt;stroke-linejoin:miter;stroke-opacity:1;stroke-miterlimit:4;stroke-dasharray:none"
       d="m 20.637501,12.369271 -3.704168,-1.653646 -2.910416,-0.132291 -1.918229,1.322916 -0.859896,2.38125 0.463021,2.645833 0.727604,3.241147 -0.79375,1.785937 1.653646,2.315104 3.63802,0.926042 3.241147,-0.330729 1.852083,-2.182813 1.653646,-1.785937 L 21.76198,16.933333 23.018751,15.279688 22.754167,12.7 Z"
       id="path914" />
    <path
       id="circle918"
       style="fill:#c0bfbc;stroke:#000000;stroke-width:2;stroke-linecap:round;stroke-linejoin:round;stroke-miterlimit:4;stroke-dasharray:none"
       d="M 38.164062 113.68359 A 55.999996 55.999996 0 0 0 64 120 A 55.999996 55.999996 0 0 0 93.822266 111.39844 L 86 108.5 L 78.5 110.75 L 71 108.25 L 64 108.25 L 58 110 L 54 109.5 L 48.25 108 L 38.164062 113.68359 z "
       transform="scale(0.26458334)" />
    <path
       id="path923"
       style="fill:#c0bfbc;stroke:#000000;stroke-width:2;stroke-linecap:round;stroke-linejoin:round;stroke-miterlimit:4;stroke-dasharray:none"
       d="M 20.248047 98.951172 L 24.25 89.25 L 20.75 80.5 L 25.5 72.5 L 29.25 64 L 30.25 52.5 L 25.5 43.25 L 30.5 36.75 L 31 27.75 L 25.558594 23.279297 A 55.999997 55.999997 0 0 0 25.556641 23.279297 A 55.999997 55.999997 0 0 0 8 64 A 55.999997 55.999997 0 0 0 20.248047 98.951172 z "
       transform="scale(0.26458334)" />
  </g>
</svg>
